<svg xmlns="http://www.w3.org/2000/svg" xmlns:xlink="http://www.w3.org/1999/xlink" width="576" zoomAndPan="magnify" viewBox="0 0 432 431.999984" height="576" preserveAspectRatio="xMidYMid meet" version="1.0"><defs><g/><clipPath id="713a44607f"><path d="M 100 14 L 147 14 L 147 45 L 100 45 Z M 100 14 " clip-rule="nonzero"/></clipPath><clipPath id="57fa39cc32"><path d="M 96.332031 31.640625 L 117.046875 0.394531 L 151.613281 23.3125 L 130.898438 54.558594 Z M 96.332031 31.640625 " clip-rule="nonzero"/></clipPath><clipPath id="b49d96ec65"><path d="M 96.332031 31.640625 L 117.046875 0.394531 L 151.613281 23.3125 L 130.898438 54.558594 Z M 96.332031 31.640625 " clip-rule="nonzero"/></clipPath><clipPath id="b664891c3d"><path d="M 30 94 L 200 94 L 200 205.679688 L 30 205.679688 Z M 30 94 " clip-rule="nonzero"/></clipPath><clipPath id="3009712ecc"><rect x="0" width="170" y="0" height="112"/></clipPath><clipPath id="132b2a5c56"><rect x="0" width="247" y="0" height="206"/></clipPath></defs><rect x="-43.2" width="518.4" fill="#ffffff" y="-43.199998" height="518.399981" fill-opacity="1"/><rect x="-43.2" width="518.4" fill="#cc4e00" y="-43.199998" height="518.399981" fill-opacity="1"/><g transform="matrix(1, 0, 0, 1, 111, 114)"><g clip-path="url(#132b2a5c56)"><g fill="#f7f0e4" fill-opacity="1"><g transform="translate(0.903288, 107.196684)"><g><path d="M 4.03125 -33.609375 C 3.96875 -35.242188 3.921875 -37.242188 3.890625 -39.609375 C 3.859375 -41.972656 3.84375 -44.410156 3.84375 -46.921875 C 3.789062 -48.140625 3.75 -49.363281 3.71875 -50.59375 C 3.6875 -51.820312 3.671875 -53.046875 3.671875 -54.265625 C 3.671875 -55.785156 3.875 -57.128906 4.28125 -58.296875 C 4.519531 -59.171875 5.019531 -59.988281 5.78125 -60.75 C 6.414062 -61.269531 7.113281 -61.53125 7.875 -61.53125 C 8.28125 -61.59375 8.6875 -61.625 9.09375 -61.625 C 9.507812 -61.625 9.921875 -61.625 10.328125 -61.625 C 10.734375 -61.625 11.125 -61.59375 11.5 -61.53125 C 11.882812 -61.476562 12.28125 -61.421875 12.6875 -61.359375 C 13.5625 -61.179688 14.234375 -60.65625 14.703125 -59.78125 C 14.878906 -59.375 15.054688 -58.976562 15.234375 -58.59375 C 15.410156 -58.21875 15.582031 -57.796875 15.75 -57.328125 C 15.8125 -57.160156 15.84375 -56.898438 15.84375 -56.546875 C 15.84375 -55.140625 15.859375 -53.765625 15.890625 -52.421875 C 15.921875 -51.085938 15.9375 -49.75 15.9375 -48.40625 C 15.9375 -45.375 15.945312 -42.351562 15.96875 -39.34375 C 16 -36.34375 16.015625 -33.351562 16.015625 -30.375 C 16.015625 -30.132812 16.070312 -29.84375 16.1875 -29.5 C 16.25 -29.257812 16.484375 -29.140625 16.890625 -29.140625 C 17.066406 -29.140625 17.210938 -29.285156 17.328125 -29.578125 C 17.503906 -29.992188 17.664062 -30.40625 17.8125 -30.8125 C 17.957031 -31.21875 18.117188 -31.625 18.296875 -32.03125 C 18.878906 -33.320312 19.460938 -34.59375 20.046875 -35.84375 C 20.628906 -37.09375 21.242188 -38.304688 21.890625 -39.484375 C 22.117188 -39.828125 22.320312 -40.289062 22.5 -40.875 C 22.96875 -41.695312 23.519531 -42.335938 24.15625 -42.796875 C 24.800781 -43.265625 25.617188 -43.5 26.609375 -43.5 C 27.660156 -43.5 28.390625 -43.035156 28.796875 -42.109375 C 29.265625 -41.171875 29.742188 -40.265625 30.234375 -39.390625 C 30.734375 -38.515625 31.1875 -37.582031 31.59375 -36.59375 C 32.0625 -35.539062 32.539062 -34.488281 33.03125 -33.4375 C 33.53125 -32.382812 33.988281 -31.304688 34.40625 -30.203125 C 34.570312 -29.734375 34.921875 -29.5 35.453125 -29.5 C 35.796875 -29.613281 35.96875 -29.785156 35.96875 -30.015625 C 35.96875 -30.140625 35.96875 -30.257812 35.96875 -30.375 C 35.96875 -30.488281 35.96875 -30.578125 35.96875 -30.640625 C 35.96875 -32.617188 35.96875 -34.570312 35.96875 -36.5 C 35.96875 -38.425781 35.96875 -40.351562 35.96875 -42.28125 C 35.96875 -44.082031 35.984375 -45.859375 36.015625 -47.609375 C 36.046875 -49.367188 36.09375 -51.148438 36.15625 -52.953125 C 36.15625 -54.648438 36.238281 -56.375 36.40625 -58.125 C 36.46875 -58.644531 36.613281 -59.140625 36.84375 -59.609375 C 37.082031 -60.078125 37.316406 -60.515625 37.546875 -60.921875 C 38.015625 -61.566406 38.6875 -61.890625 39.5625 -61.890625 C 39.96875 -61.890625 40.375 -61.859375 40.78125 -61.796875 C 41.195312 -61.734375 41.609375 -61.703125 42.015625 -61.703125 C 42.597656 -61.648438 43.179688 -61.648438 43.765625 -61.703125 C 44.992188 -61.765625 46.101562 -61.359375 47.09375 -60.484375 C 47.789062 -59.898438 48.285156 -59.195312 48.578125 -58.375 C 48.867188 -57.5625 49.015625 -56.71875 49.015625 -55.84375 C 49.015625 -54.320312 49 -52.773438 48.96875 -51.203125 C 48.945312 -49.628906 48.90625 -48.054688 48.84375 -46.484375 C 48.78125 -44.785156 48.707031 -43.0625 48.625 -41.3125 C 48.539062 -39.5625 48.523438 -37.84375 48.578125 -36.15625 C 48.640625 -34.988281 48.671875 -33.820312 48.671875 -32.65625 C 48.671875 -31.488281 48.671875 -30.316406 48.671875 -29.140625 C 48.671875 -27.046875 48.671875 -24.960938 48.671875 -22.890625 C 48.671875 -20.816406 48.671875 -18.726562 48.671875 -16.625 C 48.671875 -16.332031 48.65625 -16.023438 48.625 -15.703125 C 48.59375 -15.390625 48.578125 -15.085938 48.578125 -14.796875 C 48.460938 -13.273438 48.40625 -11.753906 48.40625 -10.234375 C 48.40625 -8.722656 48.40625 -7.207031 48.40625 -5.6875 C 48.40625 -5.050781 48.347656 -4.394531 48.234375 -3.71875 C 48.117188 -3.050781 47.972656 -2.394531 47.796875 -1.75 C 47.265625 -0.226562 46.179688 0.554688 44.546875 0.609375 C 44.085938 0.671875 43.59375 0.726562 43.0625 0.78125 C 42.539062 0.84375 42.046875 0.875 41.578125 0.875 C 40.816406 0.9375 40.054688 0.878906 39.296875 0.703125 C 38.535156 0.523438 37.804688 0.289062 37.109375 0 C 35.941406 -0.519531 35.15625 -1.363281 34.75 -2.53125 C 34.34375 -3.53125 33.945312 -4.539062 33.5625 -5.5625 C 33.1875 -6.582031 32.796875 -7.585938 32.390625 -8.578125 C 31.804688 -9.921875 31.175781 -11.25 30.5 -12.5625 C 29.832031 -13.875 29.175781 -15.171875 28.53125 -16.453125 C 28.300781 -16.921875 28.066406 -17.398438 27.828125 -17.890625 C 27.597656 -18.390625 27.335938 -18.90625 27.046875 -19.4375 C 27.046875 -19.4375 27.03125 -19.445312 27 -19.46875 C 26.96875 -19.5 26.953125 -19.515625 26.953125 -19.515625 C 26.722656 -19.984375 26.445312 -20.234375 26.125 -20.265625 C 25.800781 -20.296875 25.492188 -20.078125 25.203125 -19.609375 C 25.035156 -19.429688 24.890625 -19.226562 24.765625 -19 C 24.066406 -17.65625 23.367188 -16.3125 22.671875 -14.96875 C 21.972656 -13.625 21.300781 -12.28125 20.65625 -10.9375 C 20.25 -9.945312 19.851562 -8.925781 19.46875 -7.875 C 19.09375 -6.820312 18.671875 -5.800781 18.203125 -4.8125 C 18.085938 -4.457031 17.957031 -4.078125 17.8125 -3.671875 C 17.664062 -3.265625 17.476562 -2.914062 17.25 -2.625 C 17.070312 -2.332031 16.847656 -2.054688 16.578125 -1.796875 C 16.316406 -1.535156 16.039062 -1.285156 15.75 -1.046875 C 15.050781 -0.410156 14.289062 0.0351562 13.46875 0.296875 C 12.65625 0.566406 11.785156 0.703125 10.859375 0.703125 C 10.441406 0.703125 10.03125 0.703125 9.625 0.703125 C 9.21875 0.703125 8.8125 0.726562 8.40625 0.78125 C 7.46875 0.78125 6.707031 0.488281 6.125 -0.09375 C 5.71875 -0.550781 5.320312 -1.03125 4.9375 -1.53125 C 4.5625 -2.03125 4.316406 -2.628906 4.203125 -3.328125 C 4.140625 -3.796875 4.09375 -4.234375 4.0625 -4.640625 C 4.039062 -5.046875 4 -5.453125 3.9375 -5.859375 C 3.707031 -8.023438 3.601562 -10.171875 3.625 -12.296875 C 3.65625 -14.429688 3.703125 -16.578125 3.765625 -18.734375 C 3.765625 -20.953125 3.789062 -23.226562 3.84375 -25.5625 C 3.90625 -27.894531 3.96875 -30.578125 4.03125 -33.609375 Z M 4.03125 -33.609375 "/></g></g></g><g fill="#f7f0e4" fill-opacity="1"><g transform="translate(54.037665, 107.196684)"><g><path d="M 41.046875 -30.015625 C 41.109375 -27.921875 41.15625 -25.820312 41.1875 -23.71875 C 41.21875 -21.613281 41.257812 -19.515625 41.3125 -17.421875 C 41.375 -14.847656 41.414062 -12.289062 41.4375 -9.75 C 41.46875 -7.21875 41.515625 -4.664062 41.578125 -2.09375 C 41.578125 -1.28125 41.34375 -0.46875 40.875 0.34375 C 40.695312 0.8125 40.316406 1.046875 39.734375 1.046875 C 38.453125 1.222656 37.179688 1.253906 35.921875 1.140625 C 34.671875 1.023438 33.40625 0.9375 32.125 0.875 C 31.601562 0.8125 31.179688 0.601562 30.859375 0.25 C 30.535156 -0.09375 30.316406 -0.46875 30.203125 -0.875 C 30.023438 -1.34375 29.90625 -1.796875 29.84375 -2.234375 C 29.789062 -2.671875 29.734375 -3.125 29.671875 -3.59375 C 29.554688 -5.976562 29.46875 -8.367188 29.40625 -10.765625 C 29.351562 -13.160156 29.296875 -15.523438 29.234375 -17.859375 C 29.171875 -18.734375 29.140625 -19.625 29.140625 -20.53125 C 29.140625 -21.4375 29.140625 -22.328125 29.140625 -23.203125 C 29.203125 -23.722656 29.175781 -24.21875 29.0625 -24.6875 C 28.945312 -25.15625 28.769531 -25.59375 28.53125 -26 C 28.125 -26.875 27.453125 -27.3125 26.515625 -27.3125 C 25.410156 -27.25 24.332031 -27.21875 23.28125 -27.21875 C 22.226562 -27.21875 21.148438 -27.191406 20.046875 -27.140625 C 19.515625 -27.078125 18.988281 -26.988281 18.46875 -26.875 C 17.945312 -26.757812 17.421875 -26.640625 16.890625 -26.515625 C 16.773438 -26.515625 16.660156 -26.472656 16.546875 -26.390625 C 16.429688 -26.304688 16.3125 -26.203125 16.1875 -26.078125 C 15.550781 -25.328125 15.234375 -24.515625 15.234375 -23.640625 C 15.234375 -22.816406 15.242188 -21.96875 15.265625 -21.09375 C 15.296875 -20.21875 15.3125 -19.375 15.3125 -18.5625 C 15.3125 -16.75 15.296875 -14.953125 15.265625 -13.171875 C 15.242188 -11.390625 15.234375 -9.597656 15.234375 -7.796875 C 15.234375 -6.921875 15.21875 -6.039062 15.1875 -5.15625 C 15.15625 -4.28125 15.113281 -3.4375 15.0625 -2.625 C 15 -2.039062 14.894531 -1.484375 14.75 -0.953125 C 14.601562 -0.429688 14.414062 0.0625 14.1875 0.53125 C 13.894531 1.113281 13.484375 1.429688 12.953125 1.484375 C 12.140625 1.546875 11.304688 1.617188 10.453125 1.703125 C 9.609375 1.796875 8.78125 1.84375 7.96875 1.84375 C 7.382812 1.894531 6.8125 1.816406 6.25 1.609375 C 5.695312 1.410156 5.191406 1.132812 4.734375 0.78125 C 3.910156 0.144531 3.5 -0.695312 3.5 -1.75 C 3.5625 -3.613281 3.617188 -5.460938 3.671875 -7.296875 C 3.734375 -9.140625 3.765625 -10.992188 3.765625 -12.859375 C 3.816406 -14.734375 3.828125 -16.628906 3.796875 -18.546875 C 3.773438 -20.472656 3.734375 -22.398438 3.671875 -24.328125 C 3.617188 -25.671875 3.578125 -27.039062 3.546875 -28.4375 C 3.515625 -29.84375 3.5 -31.21875 3.5 -32.5625 C 3.5 -34.957031 3.5 -37.347656 3.5 -39.734375 C 3.5 -42.128906 3.53125 -44.523438 3.59375 -46.921875 C 3.59375 -48.316406 3.601562 -49.710938 3.625 -51.109375 C 3.65625 -52.515625 3.703125 -53.914062 3.765625 -55.3125 C 3.765625 -56.019531 3.847656 -56.722656 4.015625 -57.421875 C 4.191406 -58.117188 4.398438 -58.789062 4.640625 -59.4375 C 5.046875 -60.363281 5.742188 -60.945312 6.734375 -61.1875 C 7.316406 -61.300781 7.882812 -61.382812 8.4375 -61.4375 C 9 -61.5 9.570312 -61.53125 10.15625 -61.53125 C 10.207031 -61.53125 10.265625 -61.53125 10.328125 -61.53125 C 10.390625 -61.53125 10.445312 -61.53125 10.5 -61.53125 C 10.90625 -61.351562 11.328125 -61.265625 11.765625 -61.265625 C 12.203125 -61.265625 12.628906 -61.265625 13.046875 -61.265625 C 13.742188 -61.148438 14.382812 -60.921875 14.96875 -60.578125 C 15.4375 -60.222656 15.671875 -59.785156 15.671875 -59.265625 C 15.671875 -57.453125 15.679688 -55.65625 15.703125 -53.875 C 15.734375 -52.09375 15.722656 -50.300781 15.671875 -48.5 C 15.609375 -47.269531 15.546875 -46.039062 15.484375 -44.8125 C 15.429688 -43.59375 15.40625 -42.398438 15.40625 -41.234375 C 15.40625 -40.648438 15.59375 -40.148438 15.96875 -39.734375 C 16.351562 -39.328125 16.835938 -39.09375 17.421875 -39.03125 C 18.585938 -38.914062 19.738281 -38.859375 20.875 -38.859375 C 22.007812 -38.859375 23.160156 -38.890625 24.328125 -38.953125 C 24.796875 -38.953125 25.273438 -38.992188 25.765625 -39.078125 C 26.265625 -39.171875 26.75 -39.242188 27.21875 -39.296875 C 28.269531 -39.421875 28.851562 -40.035156 28.96875 -41.140625 C 28.96875 -41.367188 28.96875 -41.597656 28.96875 -41.828125 C 28.96875 -42.066406 28.96875 -42.304688 28.96875 -42.546875 C 28.96875 -44.816406 28.96875 -47.085938 28.96875 -49.359375 C 28.96875 -51.640625 28.96875 -53.914062 28.96875 -56.1875 C 29.03125 -56.71875 29.070312 -57.242188 29.09375 -57.765625 C 29.125 -58.296875 29.171875 -58.820312 29.234375 -59.34375 C 29.296875 -59.875 29.515625 -60.34375 29.890625 -60.75 C 30.265625 -61.15625 30.6875 -61.414062 31.15625 -61.53125 C 31.976562 -61.707031 32.796875 -61.867188 33.609375 -62.015625 C 34.429688 -62.160156 35.25 -62.203125 36.0625 -62.140625 C 36.875 -62.085938 37.613281 -61.882812 38.28125 -61.53125 C 38.957031 -61.1875 39.503906 -60.601562 39.921875 -59.78125 C 40.265625 -59.082031 40.4375 -58.382812 40.4375 -57.6875 C 40.4375 -56.28125 40.453125 -54.890625 40.484375 -53.515625 C 40.515625 -52.148438 40.554688 -50.796875 40.609375 -49.453125 C 40.671875 -47.003906 40.726562 -44.550781 40.78125 -42.09375 C 40.84375 -39.644531 40.90625 -37.164062 40.96875 -34.65625 C 41.019531 -33.90625 41.046875 -33.148438 41.046875 -32.390625 C 41.046875 -31.628906 41.078125 -30.835938 41.140625 -30.015625 C 41.140625 -30.015625 41.125 -30.015625 41.09375 -30.015625 C 41.0625 -30.015625 41.046875 -30.015625 41.046875 -30.015625 Z M 41.046875 -30.015625 "/></g></g></g><g fill="#f7f0e4" fill-opacity="1"><g transform="translate(99.731479, 107.196684)"><g><path d="M 45.421875 -34.046875 C 45.367188 -31.710938 45.238281 -29.453125 45.03125 -27.265625 C 44.832031 -25.078125 44.5 -22.90625 44.03125 -20.75 C 43.851562 -19.695312 43.632812 -18.671875 43.375 -17.671875 C 43.113281 -16.679688 42.773438 -15.691406 42.359375 -14.703125 C 42.191406 -14.296875 42.019531 -13.875 41.84375 -13.4375 C 41.664062 -13 41.488281 -12.546875 41.3125 -12.078125 C 40.96875 -11.316406 40.5625 -10.613281 40.09375 -9.96875 C 39.625 -9.332031 39.15625 -8.691406 38.6875 -8.046875 C 38.332031 -7.460938 37.96875 -6.910156 37.59375 -6.390625 C 37.21875 -5.867188 36.796875 -5.34375 36.328125 -4.8125 C 35.566406 -4 34.773438 -3.226562 33.953125 -2.5 C 33.140625 -1.769531 32.238281 -1.171875 31.25 -0.703125 C 29.789062 0.0546875 28.300781 0.550781 26.78125 0.78125 C 26.4375 0.84375 26.085938 0.890625 25.734375 0.921875 C 25.378906 0.953125 25.03125 0.992188 24.6875 1.046875 C 24.625 1.046875 24.535156 1.046875 24.421875 1.046875 C 24.304688 1.046875 24.191406 1.046875 24.078125 1.046875 C 23.429688 0.929688 22.769531 0.828125 22.09375 0.734375 C 21.425781 0.648438 20.769531 0.582031 20.125 0.53125 C 19.601562 0.40625 19.066406 0.269531 18.515625 0.125 C 17.960938 -0.0195312 17.421875 -0.207031 16.890625 -0.4375 C 16.421875 -0.613281 15.953125 -0.816406 15.484375 -1.046875 C 15.023438 -1.285156 14.5625 -1.550781 14.09375 -1.84375 C 13.6875 -2.070312 13.304688 -2.347656 12.953125 -2.671875 C 12.597656 -2.992188 12.21875 -3.300781 11.8125 -3.59375 C 11.632812 -3.757812 11.488281 -3.875 11.375 -3.9375 C 10.5625 -4.519531 9.847656 -5.191406 9.234375 -5.953125 C 8.617188 -6.710938 8.019531 -7.5 7.4375 -8.3125 C 6.332031 -9.945312 5.515625 -11.65625 4.984375 -13.4375 C 4.460938 -15.21875 4.054688 -17.070312 3.765625 -19 C 3.585938 -20.21875 3.5 -21.46875 3.5 -22.75 C 3.5 -24.039062 3.53125 -25.328125 3.59375 -26.609375 C 3.644531 -27.253906 3.65625 -27.925781 3.625 -28.625 C 3.601562 -29.320312 3.617188 -29.992188 3.671875 -30.640625 C 3.671875 -31.742188 3.726562 -32.832031 3.84375 -33.90625 C 3.96875 -34.988281 4.113281 -36.054688 4.28125 -37.109375 C 4.40625 -37.640625 4.476562 -38.179688 4.5 -38.734375 C 4.53125 -39.285156 4.578125 -39.828125 4.640625 -40.359375 C 4.816406 -41.523438 4.988281 -42.675781 5.15625 -43.8125 C 5.332031 -44.945312 5.597656 -46.066406 5.953125 -47.171875 C 6.535156 -48.753906 7.191406 -50.300781 7.921875 -51.8125 C 8.648438 -53.332031 9.65625 -54.675781 10.9375 -55.84375 C 11.757812 -56.664062 12.617188 -57.46875 13.515625 -58.25 C 14.421875 -59.039062 15.429688 -59.726562 16.546875 -60.3125 C 17.359375 -60.78125 18.203125 -61.171875 19.078125 -61.484375 C 19.953125 -61.804688 20.859375 -62.054688 21.796875 -62.234375 C 22.671875 -62.347656 23.546875 -62.445312 24.421875 -62.53125 C 25.296875 -62.625 26.171875 -62.613281 27.046875 -62.5 C 27.691406 -62.4375 28.347656 -62.359375 29.015625 -62.265625 C 29.679688 -62.179688 30.335938 -62.023438 30.984375 -61.796875 C 31.859375 -61.503906 32.71875 -61.125 33.5625 -60.65625 C 34.414062 -60.1875 35.25 -59.722656 36.0625 -59.265625 C 36.707031 -58.910156 37.257812 -58.484375 37.71875 -57.984375 C 38.1875 -57.492188 38.625 -56.957031 39.03125 -56.375 C 40.320312 -54.675781 41.316406 -52.75 42.015625 -50.59375 C 42.421875 -49.425781 42.796875 -48.257812 43.140625 -47.09375 C 43.492188 -45.925781 43.847656 -44.757812 44.203125 -43.59375 C 44.671875 -42.019531 45.003906 -40.5 45.203125 -39.03125 C 45.410156 -37.570312 45.484375 -35.910156 45.421875 -34.046875 Z M 31.859375 -31.859375 C 31.804688 -32.441406 31.78125 -33.023438 31.78125 -33.609375 C 31.78125 -34.191406 31.75 -34.773438 31.6875 -35.359375 C 31.625 -36.703125 31.476562 -38.070312 31.25 -39.46875 C 31.019531 -40.875 30.640625 -42.21875 30.109375 -43.5 C 29.816406 -44.195312 29.492188 -44.894531 29.140625 -45.59375 C 28.796875 -46.300781 28.359375 -46.945312 27.828125 -47.53125 C 27.421875 -48.050781 26.957031 -48.34375 26.4375 -48.40625 C 26.082031 -48.519531 25.742188 -48.601562 25.421875 -48.65625 C 25.109375 -48.71875 24.773438 -48.78125 24.421875 -48.84375 C 23.835938 -48.90625 23.269531 -48.890625 22.71875 -48.796875 C 22.164062 -48.710938 21.65625 -48.4375 21.1875 -47.96875 C 19.726562 -46.5625 18.5 -44.984375 17.5 -43.234375 C 16.570312 -41.484375 15.898438 -39.675781 15.484375 -37.8125 C 15.078125 -35.945312 14.816406 -34.050781 14.703125 -32.125 C 14.648438 -30.3125 14.664062 -28.5 14.75 -26.6875 C 14.832031 -24.882812 15.050781 -23.078125 15.40625 -21.265625 C 15.519531 -20.566406 15.664062 -19.851562 15.84375 -19.125 C 16.019531 -18.394531 16.28125 -17.707031 16.625 -17.0625 C 17.269531 -15.78125 18.144531 -14.757812 19.25 -14 C 20.363281 -13.363281 21.472656 -12.867188 22.578125 -12.515625 C 23.285156 -12.285156 23.972656 -12.226562 24.640625 -12.34375 C 25.304688 -12.457031 25.929688 -12.691406 26.515625 -13.046875 C 27.160156 -13.390625 27.703125 -13.835938 28.140625 -14.390625 C 28.578125 -14.953125 28.941406 -15.550781 29.234375 -16.1875 C 30.222656 -18.289062 30.894531 -20.453125 31.25 -22.671875 C 31.476562 -24.191406 31.648438 -25.722656 31.765625 -27.265625 C 31.890625 -28.804688 31.921875 -30.335938 31.859375 -31.859375 Z M 31.859375 -31.859375 "/></g></g></g><g fill="#f7f0e4" fill-opacity="1"><g transform="translate(149.451945, 107.196684)"><g><path d="M 15.0625 -46.734375 C 15.175781 -45.273438 15.257812 -43.875 15.3125 -42.53125 C 15.375 -41.195312 15.4375 -39.859375 15.5 -38.515625 C 15.5 -38.453125 15.507812 -38.390625 15.53125 -38.328125 C 15.5625 -38.273438 15.578125 -38.191406 15.578125 -38.078125 C 15.691406 -35.335938 15.804688 -32.578125 15.921875 -29.796875 C 16.046875 -27.023438 16.109375 -24.238281 16.109375 -21.4375 C 16.046875 -20.332031 16.03125 -19.195312 16.0625 -18.03125 C 16.09375 -16.863281 16.109375 -15.695312 16.109375 -14.53125 C 16.109375 -14.414062 16.109375 -14.285156 16.109375 -14.140625 C 16.109375 -13.992188 16.109375 -13.863281 16.109375 -13.75 C 16.222656 -13.15625 16.484375 -12.671875 16.890625 -12.296875 C 17.296875 -11.921875 17.789062 -11.757812 18.375 -11.8125 C 19.3125 -11.875 20.21875 -11.859375 21.09375 -11.765625 C 21.96875 -11.679688 22.875 -11.609375 23.8125 -11.546875 C 24.394531 -11.492188 24.960938 -11.453125 25.515625 -11.421875 C 26.066406 -11.390625 26.632812 -11.375 27.21875 -11.375 C 27.457031 -11.375 27.691406 -11.375 27.921875 -11.375 C 28.148438 -11.375 28.382812 -11.347656 28.625 -11.296875 C 30.019531 -11.171875 30.925781 -10.46875 31.34375 -9.1875 C 31.925781 -7.4375 32.039062 -5.570312 31.6875 -3.59375 C 31.332031 -2.25 30.515625 -1.164062 29.234375 -0.34375 C 28.878906 -0.175781 28.441406 -0.09375 27.921875 -0.09375 C 27.222656 -0.09375 26.519531 -0.09375 25.8125 -0.09375 C 25.113281 -0.09375 24.414062 -0.0625 23.71875 0 C 22.375 0.0625 21.03125 0.101562 19.6875 0.125 C 18.351562 0.15625 17.015625 0.203125 15.671875 0.265625 C 14.554688 0.316406 13.414062 0.359375 12.25 0.390625 C 11.082031 0.421875 9.914062 0.46875 8.75 0.53125 C 8.519531 0.53125 8.285156 0.53125 8.046875 0.53125 C 7.816406 0.53125 7.585938 0.5 7.359375 0.4375 C 6.773438 0.320312 6.363281 0.144531 6.125 -0.09375 C 4.78125 -1.3125 4.109375 -2.796875 4.109375 -4.546875 C 4.054688 -6.765625 4 -8.953125 3.9375 -11.109375 C 3.875 -13.273438 3.816406 -15.4375 3.765625 -17.59375 C 3.703125 -19.8125 3.671875 -22.03125 3.671875 -24.25 C 3.671875 -26.46875 3.644531 -28.6875 3.59375 -30.90625 C 3.53125 -34.164062 3.5 -37.457031 3.5 -40.78125 C 3.5 -44.113281 3.5 -47.441406 3.5 -50.765625 C 3.5 -51.003906 3.5 -51.238281 3.5 -51.46875 C 3.5 -51.695312 3.53125 -51.929688 3.59375 -52.171875 C 3.757812 -52.984375 3.898438 -53.8125 4.015625 -54.65625 C 4.140625 -55.507812 4.347656 -56.316406 4.640625 -57.078125 C 4.929688 -58.003906 5.367188 -58.757812 5.953125 -59.34375 C 6.472656 -59.8125 7.039062 -60.144531 7.65625 -60.34375 C 8.269531 -60.550781 8.867188 -60.710938 9.453125 -60.828125 C 9.566406 -60.828125 9.695312 -60.828125 9.84375 -60.828125 C 9.988281 -60.828125 10.117188 -60.828125 10.234375 -60.828125 C 10.703125 -60.953125 11.140625 -60.941406 11.546875 -60.796875 C 11.960938 -60.648438 12.375 -60.429688 12.78125 -60.140625 C 13.070312 -59.898438 13.273438 -59.609375 13.390625 -59.265625 C 13.503906 -58.847656 13.632812 -58.453125 13.78125 -58.078125 C 13.925781 -57.703125 14.03125 -57.28125 14.09375 -56.8125 C 14.269531 -56.164062 14.414062 -55.492188 14.53125 -54.796875 C 14.644531 -54.097656 14.757812 -53.394531 14.875 -52.6875 C 14.9375 -52.519531 14.96875 -52.332031 14.96875 -52.125 C 14.96875 -51.914062 14.96875 -51.695312 14.96875 -51.46875 C 15.03125 -50.65625 15.0625 -49.820312 15.0625 -48.96875 C 15.0625 -48.125 15.0625 -47.378906 15.0625 -46.734375 Z M 15.0625 -46.734375 "/></g></g></g><g fill="#f7f0e4" fill-opacity="1"><g transform="translate(184.553899, 107.196684)"><g><path d="M 26.78125 -10.9375 C 28.300781 -11.050781 29.816406 -11.125 31.328125 -11.15625 C 32.847656 -11.1875 34.335938 -11.234375 35.796875 -11.296875 C 37.367188 -11.410156 38.476562 -10.738281 39.125 -9.28125 C 39.59375 -8.164062 39.867188 -7.066406 39.953125 -5.984375 C 40.046875 -4.910156 40.003906 -3.789062 39.828125 -2.625 C 39.765625 -2.269531 39.660156 -1.914062 39.515625 -1.5625 C 39.367188 -1.21875 39.238281 -0.875 39.125 -0.53125 C 38.769531 0.113281 38.21875 0.492188 37.46875 0.609375 C 36.882812 0.671875 36.300781 0.703125 35.71875 0.703125 C 35.132812 0.703125 34.519531 0.703125 33.875 0.703125 C 33.519531 0.703125 33.164062 0.6875 32.8125 0.65625 C 32.46875 0.625 32.09375 0.609375 31.6875 0.609375 C 30.75 0.671875 29.785156 0.710938 28.796875 0.734375 C 27.804688 0.765625 26.816406 0.78125 25.828125 0.78125 C 25.117188 0.84375 24.429688 0.84375 23.765625 0.78125 C 23.097656 0.726562 22.441406 0.726562 21.796875 0.78125 C 20.222656 0.84375 18.660156 0.890625 17.109375 0.921875 C 15.566406 0.953125 14.035156 0.992188 12.515625 1.046875 C 11.578125 1.046875 10.65625 1.03125 9.75 1 C 8.851562 0.976562 7.9375 0.9375 7 0.875 C 6.945312 0.875 6.890625 0.875 6.828125 0.875 C 6.765625 0.875 6.707031 0.875 6.65625 0.875 C 6.300781 0.582031 5.945312 0.316406 5.59375 0.078125 C 5.25 -0.148438 4.929688 -0.378906 4.640625 -0.609375 C 4.523438 -0.785156 4.40625 -0.988281 4.28125 -1.21875 C 4.050781 -1.976562 3.878906 -2.738281 3.765625 -3.5 C 3.648438 -4.257812 3.617188 -5.046875 3.671875 -5.859375 C 3.785156 -7.203125 3.875 -8.5 3.9375 -9.75 C 4 -11.007812 4.054688 -12.28125 4.109375 -13.5625 C 4.222656 -15.257812 4.3125 -16.96875 4.375 -18.6875 C 4.4375 -20.40625 4.492188 -22.113281 4.546875 -23.8125 C 4.609375 -24.445312 4.640625 -25.113281 4.640625 -25.8125 C 4.640625 -26.519531 4.671875 -27.191406 4.734375 -27.828125 C 4.847656 -29.234375 4.875 -30.632812 4.8125 -32.03125 C 4.757812 -33.4375 4.703125 -34.8125 4.640625 -36.15625 C 4.640625 -36.269531 4.640625 -36.398438 4.640625 -36.546875 C 4.640625 -36.691406 4.640625 -36.789062 4.640625 -36.84375 C 4.578125 -39.1875 4.515625 -41.492188 4.453125 -43.765625 C 4.398438 -46.035156 4.34375 -48.34375 4.28125 -50.6875 C 4.28125 -51.320312 4.320312 -51.972656 4.40625 -52.640625 C 4.5 -53.316406 4.578125 -54.003906 4.640625 -54.703125 C 4.640625 -54.992188 4.679688 -55.285156 4.765625 -55.578125 C 4.859375 -55.867188 4.929688 -56.160156 4.984375 -56.453125 C 5.222656 -57.097656 5.441406 -57.753906 5.640625 -58.421875 C 5.847656 -59.097656 6.128906 -59.726562 6.484375 -60.3125 C 6.828125 -60.945312 7.347656 -61.382812 8.046875 -61.625 C 8.515625 -61.738281 8.992188 -61.835938 9.484375 -61.921875 C 9.984375 -62.015625 10.46875 -62.03125 10.9375 -61.96875 C 11.695312 -61.914062 12.441406 -61.890625 13.171875 -61.890625 C 13.898438 -61.890625 14.644531 -61.859375 15.40625 -61.796875 C 16.394531 -61.734375 17.367188 -61.6875 18.328125 -61.65625 C 19.296875 -61.632812 20.25 -61.566406 21.1875 -61.453125 C 22.53125 -61.390625 23.882812 -61.359375 25.25 -61.359375 C 26.625 -61.359375 27.984375 -61.390625 29.328125 -61.453125 C 30.140625 -61.566406 30.9375 -61.625 31.71875 -61.625 C 32.507812 -61.625 33.285156 -61.625 34.046875 -61.625 C 34.398438 -61.625 34.75 -61.578125 35.09375 -61.484375 C 35.445312 -61.398438 35.800781 -61.300781 36.15625 -61.1875 C 36.5625 -61.125 36.96875 -60.976562 37.375 -60.75 C 38.3125 -60.34375 38.863281 -59.582031 39.03125 -58.46875 C 39.5625 -56.132812 39.625 -53.859375 39.21875 -51.640625 C 39.15625 -51.117188 38.890625 -50.625 38.421875 -50.15625 C 38.015625 -49.800781 37.59375 -49.476562 37.15625 -49.1875 C 36.71875 -48.894531 36.238281 -48.664062 35.71875 -48.5 C 35.300781 -48.375 34.890625 -48.3125 34.484375 -48.3125 C 34.078125 -48.3125 33.640625 -48.285156 33.171875 -48.234375 C 33.054688 -48.234375 32.941406 -48.234375 32.828125 -48.234375 C 32.710938 -48.234375 32.59375 -48.234375 32.46875 -48.234375 C 31.65625 -47.992188 30.8125 -47.890625 29.9375 -47.921875 C 29.0625 -47.953125 28.1875 -47.96875 27.3125 -47.96875 C 26.726562 -47.96875 26.15625 -47.953125 25.59375 -47.921875 C 25.039062 -47.890625 24.472656 -47.816406 23.890625 -47.703125 C 23.722656 -47.640625 23.535156 -47.609375 23.328125 -47.609375 C 23.117188 -47.609375 22.898438 -47.582031 22.671875 -47.53125 C 22.316406 -47.46875 21.945312 -47.40625 21.5625 -47.34375 C 21.1875 -47.289062 20.828125 -47.207031 20.484375 -47.09375 C 19.492188 -46.914062 19 -46.332031 19 -45.34375 C 18.9375 -44.757812 18.90625 -44.1875 18.90625 -43.625 C 18.90625 -43.070312 18.90625 -42.503906 18.90625 -41.921875 C 18.90625 -41.804688 18.90625 -41.675781 18.90625 -41.53125 C 18.90625 -41.382812 18.90625 -41.253906 18.90625 -41.140625 C 19.082031 -40.203125 19.550781 -39.617188 20.3125 -39.390625 C 20.476562 -39.328125 20.769531 -39.296875 21.1875 -39.296875 C 21.65625 -39.296875 22.148438 -39.3125 22.671875 -39.34375 C 23.191406 -39.375 23.6875 -39.390625 24.15625 -39.390625 C 24.332031 -39.390625 24.507812 -39.390625 24.6875 -39.390625 C 24.863281 -39.390625 25.035156 -39.390625 25.203125 -39.390625 C 26.140625 -39.328125 27.0625 -39.3125 27.96875 -39.34375 C 28.875 -39.375 29.765625 -39.359375 30.640625 -39.296875 C 31.515625 -39.296875 32.253906 -39.03125 32.859375 -38.5 C 33.472656 -37.976562 33.867188 -37.3125 34.046875 -36.5 C 34.160156 -36.207031 34.234375 -35.898438 34.265625 -35.578125 C 34.296875 -35.253906 34.34375 -34.945312 34.40625 -34.65625 C 34.519531 -34.3125 34.578125 -33.976562 34.578125 -33.65625 C 34.578125 -33.332031 34.578125 -33 34.578125 -32.65625 C 34.578125 -31.3125 34.050781 -30.226562 33 -29.40625 C 32.1875 -28.769531 31.3125 -28.453125 30.375 -28.453125 C 29.96875 -28.453125 29.570312 -28.421875 29.1875 -28.359375 C 28.8125 -28.296875 28.421875 -28.265625 28.015625 -28.265625 C 27.890625 -28.210938 27.710938 -28.1875 27.484375 -28.1875 C 26.722656 -28.125 25.976562 -28.0625 25.25 -28 C 24.519531 -27.945312 23.804688 -27.890625 23.109375 -27.828125 C 22.640625 -27.773438 22.171875 -27.71875 21.703125 -27.65625 C 21.234375 -27.601562 20.769531 -27.546875 20.3125 -27.484375 C 19.664062 -27.421875 19.253906 -27.015625 19.078125 -26.265625 C 18.898438 -25.503906 18.8125 -24.757812 18.8125 -24.03125 C 18.8125 -23.300781 18.785156 -22.554688 18.734375 -21.796875 C 18.617188 -20.679688 18.546875 -19.597656 18.515625 -18.546875 C 18.484375 -17.503906 18.5 -16.425781 18.5625 -15.3125 C 18.5625 -14.96875 18.585938 -14.601562 18.640625 -14.21875 C 18.703125 -13.84375 18.757812 -13.476562 18.8125 -13.125 C 18.875 -12.539062 19.09375 -12.101562 19.46875 -11.8125 C 19.851562 -11.519531 20.304688 -11.316406 20.828125 -11.203125 C 21.296875 -11.140625 21.75 -11.109375 22.1875 -11.109375 C 22.625 -11.109375 23.046875 -11.082031 23.453125 -11.03125 C 24.035156 -11.03125 24.585938 -11.03125 25.109375 -11.03125 C 25.640625 -11.03125 26.195312 -11.03125 26.78125 -11.03125 C 26.78125 -11.03125 26.78125 -11.015625 26.78125 -10.984375 C 26.78125 -10.953125 26.78125 -10.9375 26.78125 -10.9375 Z M 26.78125 -10.9375 "/></g></g></g><g fill="#f7f0e4" fill-opacity="1"><g transform="translate(229.027824, 107.196684)"><g/></g></g><g fill="#f7f0e4" fill-opacity="1"><g transform="translate(5.795441, 35.530654)"><g><path d="M 6.578125 -7.84375 C 6.578125 -6.945312 6.570312 -6.054688 6.5625 -5.171875 C 6.550781 -4.296875 6.539062 -3.410156 6.53125 -2.515625 C 6.53125 -2.128906 6.519531 -1.738281 6.5 -1.34375 C 6.488281 -0.957031 6.472656 -0.566406 6.453125 -0.171875 C 6.453125 -0.0234375 6.363281 0.078125 6.1875 0.140625 C 5.875 0.210938 5.566406 0.253906 5.265625 0.265625 C 4.960938 0.285156 4.648438 0.269531 4.328125 0.21875 C 4.265625 0.207031 4.195312 0.203125 4.125 0.203125 C 4.050781 0.203125 3.976562 0.191406 3.90625 0.171875 C 3.601562 0.117188 3.453125 -0.0507812 3.453125 -0.34375 L 3.453125 -2.84375 C 3.453125 -3.507812 3.441406 -4.171875 3.421875 -4.828125 C 3.410156 -5.484375 3.410156 -6.148438 3.421875 -6.828125 C 3.421875 -7.429688 3.429688 -8.035156 3.453125 -8.640625 C 3.484375 -9.253906 3.515625 -9.863281 3.546875 -10.46875 C 3.578125 -10.894531 3.59375 -11.316406 3.59375 -11.734375 C 3.59375 -12.160156 3.59375 -12.578125 3.59375 -12.984375 C 3.59375 -13.160156 3.59375 -13.328125 3.59375 -13.484375 C 3.59375 -13.640625 3.582031 -13.800781 3.5625 -13.96875 C 3.5625 -14.039062 3.554688 -14.082031 3.546875 -14.09375 C 3.546875 -14.101562 3.503906 -14.109375 3.421875 -14.109375 C 3.015625 -14.109375 2.609375 -14.109375 2.203125 -14.109375 C 1.796875 -14.109375 1.378906 -14.09375 0.953125 -14.0625 L 0.734375 -14.0625 C 0.640625 -14.0625 0.570312 -14.125 0.53125 -14.25 C 0.519531 -14.351562 0.507812 -14.453125 0.5 -14.546875 C 0.488281 -14.648438 0.484375 -14.757812 0.484375 -14.875 C 0.484375 -15.226562 0.488281 -15.578125 0.5 -15.921875 C 0.519531 -16.273438 0.550781 -16.632812 0.59375 -17 C 0.601562 -17.1875 0.707031 -17.289062 0.90625 -17.3125 C 1.195312 -17.332031 1.492188 -17.34375 1.796875 -17.34375 C 2.097656 -17.351562 2.394531 -17.351562 2.6875 -17.34375 C 3.601562 -17.269531 4.515625 -17.226562 5.421875 -17.21875 C 6.335938 -17.21875 7.253906 -17.222656 8.171875 -17.234375 C 8.398438 -17.234375 8.625 -17.238281 8.84375 -17.25 C 9.0625 -17.257812 9.273438 -17.265625 9.484375 -17.265625 C 9.617188 -17.265625 9.707031 -17.242188 9.75 -17.203125 C 9.789062 -17.160156 9.8125 -17.078125 9.8125 -16.953125 C 9.820312 -16.617188 9.8125 -16.285156 9.78125 -15.953125 C 9.757812 -15.617188 9.742188 -15.28125 9.734375 -14.9375 L 9.734375 -14.453125 C 9.710938 -14.253906 9.613281 -14.148438 9.4375 -14.140625 L 9.296875 -14.140625 C 8.953125 -14.171875 8.609375 -14.175781 8.265625 -14.15625 C 7.921875 -14.144531 7.585938 -14.128906 7.265625 -14.109375 L 6.875 -14.109375 C 6.789062 -14.109375 6.75 -14.066406 6.75 -13.984375 L 6.75 -13.796875 C 6.75 -13.429688 6.753906 -13.066406 6.765625 -12.703125 C 6.773438 -12.335938 6.769531 -11.972656 6.75 -11.609375 C 6.726562 -11.003906 6.707031 -10.410156 6.6875 -9.828125 C 6.675781 -9.242188 6.65625 -8.65625 6.625 -8.0625 C 6.613281 -8.019531 6.609375 -7.945312 6.609375 -7.84375 Z M 6.578125 -7.84375 "/></g></g></g><g fill="#f7f0e4" fill-opacity="1"><g transform="translate(16.113908, 35.530654)"><g><path d="M 4.359375 -3.765625 C 4.335938 -3.359375 4.316406 -2.953125 4.296875 -2.546875 C 4.285156 -2.140625 4.28125 -1.734375 4.28125 -1.328125 C 4.257812 -1.109375 4.25 -0.898438 4.25 -0.703125 C 4.25 -0.515625 4.242188 -0.3125 4.234375 -0.09375 L 4.234375 0.078125 C 4.203125 0.203125 4.132812 0.265625 4.03125 0.265625 C 3.757812 0.296875 3.472656 0.328125 3.171875 0.359375 C 2.878906 0.398438 2.597656 0.425781 2.328125 0.4375 C 2.140625 0.457031 1.945312 0.445312 1.75 0.40625 C 1.5625 0.375 1.378906 0.351562 1.203125 0.34375 C 1.066406 0.34375 1 0.253906 1 0.078125 C 0.96875 -0.117188 0.96875 -0.332031 1 -0.5625 C 1.019531 -1.070312 1.035156 -1.578125 1.046875 -2.078125 C 1.066406 -2.585938 1.078125 -3.09375 1.078125 -3.59375 C 1.078125 -4.164062 1.070312 -4.738281 1.0625 -5.3125 C 1.050781 -5.894531 1.039062 -6.472656 1.03125 -7.046875 C 1.03125 -7.421875 1.019531 -7.796875 1 -8.171875 C 0.988281 -8.546875 0.984375 -8.921875 0.984375 -9.296875 C 0.984375 -9.960938 0.984375 -10.632812 0.984375 -11.3125 C 0.992188 -12 1 -12.6875 1 -13.375 C 1.019531 -13.78125 1.03125 -14.1875 1.03125 -14.59375 C 1.039062 -15 1.054688 -15.410156 1.078125 -15.828125 C 1.078125 -16.046875 1.082031 -16.269531 1.09375 -16.5 C 1.113281 -16.726562 1.132812 -16.957031 1.15625 -17.1875 C 1.15625 -17.320312 1.21875 -17.40625 1.34375 -17.4375 C 1.457031 -17.46875 1.5625 -17.488281 1.65625 -17.5 C 1.757812 -17.519531 1.859375 -17.53125 1.953125 -17.53125 C 2.179688 -17.550781 2.40625 -17.5625 2.625 -17.5625 C 2.84375 -17.5625 3.0625 -17.5625 3.28125 -17.5625 C 3.425781 -17.5625 3.566406 -17.550781 3.703125 -17.53125 C 3.835938 -17.519531 3.972656 -17.503906 4.109375 -17.484375 C 4.316406 -17.460938 4.421875 -17.359375 4.421875 -17.171875 C 4.441406 -16.984375 4.453125 -16.796875 4.453125 -16.609375 C 4.453125 -16.421875 4.453125 -16.238281 4.453125 -16.0625 C 4.429688 -15.65625 4.425781 -15.25 4.4375 -14.84375 C 4.445312 -14.4375 4.4375 -14.03125 4.40625 -13.625 C 4.382812 -13.226562 4.375 -12.828125 4.375 -12.421875 C 4.375 -12.023438 4.375 -11.632812 4.375 -11.25 L 4.375 -11.15625 C 4.363281 -11.082031 4.40625 -11.046875 4.5 -11.046875 C 4.59375 -11.046875 4.691406 -11.050781 4.796875 -11.0625 C 4.910156 -11.070312 5.015625 -11.078125 5.109375 -11.078125 C 5.316406 -11.078125 5.523438 -11.078125 5.734375 -11.078125 C 5.941406 -11.078125 6.148438 -11.085938 6.359375 -11.109375 C 6.640625 -11.140625 6.921875 -11.164062 7.203125 -11.1875 C 7.484375 -11.207031 7.769531 -11.226562 8.0625 -11.25 C 8.144531 -11.257812 8.191406 -11.269531 8.203125 -11.28125 C 8.222656 -11.289062 8.234375 -11.34375 8.234375 -11.4375 C 8.222656 -12.03125 8.210938 -12.617188 8.203125 -13.203125 C 8.191406 -13.785156 8.195312 -14.363281 8.21875 -14.9375 C 8.21875 -15.601562 8.242188 -16.265625 8.296875 -16.921875 L 8.296875 -17.140625 C 8.328125 -17.335938 8.4375 -17.453125 8.625 -17.484375 C 8.8125 -17.515625 9 -17.550781 9.1875 -17.59375 C 9.382812 -17.632812 9.570312 -17.660156 9.75 -17.671875 C 9.976562 -17.722656 10.210938 -17.753906 10.453125 -17.765625 C 10.703125 -17.773438 10.953125 -17.769531 11.203125 -17.75 C 11.378906 -17.75 11.46875 -17.648438 11.46875 -17.453125 C 11.46875 -17.359375 11.46875 -17.257812 11.46875 -17.15625 C 11.46875 -17.0625 11.457031 -16.96875 11.4375 -16.875 C 11.425781 -16.414062 11.425781 -15.957031 11.4375 -15.5 C 11.457031 -15.039062 11.476562 -14.585938 11.5 -14.140625 C 11.53125 -13.484375 11.546875 -12.828125 11.546875 -12.171875 C 11.554688 -11.523438 11.570312 -10.875 11.59375 -10.21875 C 11.601562 -9.550781 11.613281 -8.890625 11.625 -8.234375 C 11.632812 -7.585938 11.648438 -6.929688 11.671875 -6.265625 C 11.679688 -5.460938 11.691406 -4.671875 11.703125 -3.890625 C 11.722656 -3.109375 11.742188 -2.328125 11.765625 -1.546875 C 11.765625 -1.328125 11.765625 -1.101562 11.765625 -0.875 C 11.765625 -0.644531 11.769531 -0.421875 11.78125 -0.203125 C 11.78125 -0.128906 11.773438 -0.078125 11.765625 -0.046875 C 11.765625 0.117188 11.691406 0.203125 11.546875 0.203125 C 11.316406 0.210938 11.082031 0.222656 10.84375 0.234375 C 10.601562 0.253906 10.367188 0.257812 10.140625 0.25 C 9.992188 0.21875 9.847656 0.203125 9.703125 0.203125 C 9.554688 0.203125 9.40625 0.191406 9.25 0.171875 C 9.164062 0.171875 9.078125 0.164062 8.984375 0.15625 C 8.898438 0.144531 8.804688 0.132812 8.703125 0.125 C 8.523438 0.101562 8.4375 0.00390625 8.4375 -0.171875 C 8.414062 -0.640625 8.394531 -1.117188 8.375 -1.609375 C 8.351562 -2.097656 8.332031 -2.582031 8.3125 -3.0625 C 8.300781 -3.582031 8.296875 -4.101562 8.296875 -4.625 C 8.296875 -5.144531 8.285156 -5.664062 8.265625 -6.1875 L 8.265625 -7.609375 C 8.265625 -7.703125 8.253906 -7.753906 8.234375 -7.765625 C 8.222656 -7.785156 8.175781 -7.796875 8.09375 -7.796875 C 7.78125 -7.796875 7.46875 -7.796875 7.15625 -7.796875 C 6.851562 -7.796875 6.546875 -7.789062 6.234375 -7.78125 C 5.941406 -7.78125 5.648438 -7.769531 5.359375 -7.75 C 5.078125 -7.738281 4.800781 -7.722656 4.53125 -7.703125 C 4.445312 -7.679688 4.390625 -7.660156 4.359375 -7.640625 C 4.335938 -7.628906 4.328125 -7.582031 4.328125 -7.5 C 4.328125 -7.09375 4.328125 -6.6875 4.328125 -6.28125 C 4.328125 -5.875 4.335938 -5.46875 4.359375 -5.0625 Z M 4.359375 -3.765625 "/></g></g></g><g fill="#f7f0e4" fill-opacity="1"><g transform="translate(28.877503, 35.530654)"><g><path d="M 5.3125 -5.546875 L 5.3125 -3.5 C 5.3125 -3.414062 5.316406 -3.359375 5.328125 -3.328125 C 5.347656 -3.304688 5.40625 -3.296875 5.5 -3.296875 C 5.582031 -3.296875 5.660156 -3.289062 5.734375 -3.28125 C 5.804688 -3.28125 5.875 -3.28125 5.9375 -3.28125 C 6.070312 -3.257812 6.203125 -3.242188 6.328125 -3.234375 C 6.460938 -3.234375 6.585938 -3.234375 6.703125 -3.234375 C 7.367188 -3.191406 8.046875 -3.191406 8.734375 -3.234375 C 9.035156 -3.234375 9.34375 -3.242188 9.65625 -3.265625 C 9.96875 -3.285156 10.28125 -3.304688 10.59375 -3.328125 L 10.875 -3.328125 C 11.101562 -3.328125 11.242188 -3.21875 11.296875 -3 C 11.347656 -2.8125 11.375 -2.617188 11.375 -2.421875 L 11.375 -0.484375 C 11.375 -0.242188 11.25 -0.0820312 11 0 C 10.769531 0.0625 10.53125 0.0976562 10.28125 0.109375 C 10.039062 0.117188 9.804688 0.113281 9.578125 0.09375 C 9.367188 0.0820312 9.160156 0.078125 8.953125 0.078125 C 8.753906 0.0859375 8.554688 0.101562 8.359375 0.125 L 6.546875 0.125 C 6.421875 0.132812 6.289062 0.140625 6.15625 0.140625 C 6.03125 0.140625 5.894531 0.148438 5.75 0.171875 L 5.546875 0.171875 C 5.171875 0.191406 4.789062 0.203125 4.40625 0.203125 C 4.03125 0.203125 3.644531 0.203125 3.25 0.203125 C 3.039062 0.210938 2.816406 0.210938 2.578125 0.203125 C 2.335938 0.203125 2.109375 0.191406 1.890625 0.171875 C 1.773438 0.171875 1.660156 0.160156 1.546875 0.140625 C 1.441406 0.128906 1.332031 0.113281 1.21875 0.09375 C 1.0625 0.0625 0.984375 -0.0234375 0.984375 -0.171875 C 0.984375 -0.234375 0.984375 -0.300781 0.984375 -0.375 C 0.984375 -0.445312 0.988281 -0.519531 1 -0.59375 C 1.019531 -0.769531 1.035156 -0.953125 1.046875 -1.140625 C 1.066406 -1.328125 1.082031 -1.507812 1.09375 -1.6875 C 1.132812 -1.96875 1.160156 -2.253906 1.171875 -2.546875 C 1.191406 -2.835938 1.207031 -3.125 1.21875 -3.40625 C 1.238281 -3.582031 1.25 -3.753906 1.25 -3.921875 C 1.25 -4.097656 1.253906 -4.265625 1.265625 -4.421875 C 1.285156 -4.992188 1.300781 -5.550781 1.3125 -6.09375 C 1.332031 -6.644531 1.359375 -7.195312 1.390625 -7.75 C 1.410156 -8.039062 1.421875 -8.328125 1.421875 -8.609375 C 1.429688 -8.898438 1.429688 -9.191406 1.421875 -9.484375 C 1.398438 -9.921875 1.378906 -10.351562 1.359375 -10.78125 C 1.347656 -11.21875 1.335938 -11.660156 1.328125 -12.109375 C 1.304688 -13.003906 1.304688 -13.890625 1.328125 -14.765625 C 1.328125 -15.054688 1.34375 -15.34375 1.375 -15.625 C 1.40625 -15.914062 1.425781 -16.207031 1.4375 -16.5 C 1.457031 -16.644531 1.46875 -16.785156 1.46875 -16.921875 C 1.476562 -17.066406 1.484375 -17.210938 1.484375 -17.359375 C 1.503906 -17.566406 1.601562 -17.679688 1.78125 -17.703125 L 2.28125 -17.703125 C 2.351562 -17.679688 2.4375 -17.664062 2.53125 -17.65625 C 2.632812 -17.65625 2.726562 -17.644531 2.8125 -17.625 C 3.15625 -17.625 3.5 -17.617188 3.84375 -17.609375 C 4.195312 -17.609375 4.546875 -17.597656 4.890625 -17.578125 C 5.066406 -17.578125 5.253906 -17.566406 5.453125 -17.546875 C 5.648438 -17.535156 5.835938 -17.523438 6.015625 -17.515625 C 6.796875 -17.460938 7.578125 -17.460938 8.359375 -17.515625 C 8.734375 -17.523438 9.113281 -17.53125 9.5 -17.53125 C 9.894531 -17.53125 10.28125 -17.539062 10.65625 -17.5625 C 10.726562 -17.5625 10.789062 -17.554688 10.84375 -17.546875 C 10.90625 -17.535156 10.96875 -17.523438 11.03125 -17.515625 C 11.175781 -17.492188 11.253906 -17.410156 11.265625 -17.265625 L 11.265625 -17.125 C 11.265625 -17.007812 11.265625 -16.894531 11.265625 -16.78125 C 11.265625 -16.675781 11.273438 -16.578125 11.296875 -16.484375 C 11.316406 -16.222656 11.332031 -15.957031 11.34375 -15.6875 C 11.363281 -15.414062 11.378906 -15.144531 11.390625 -14.875 C 11.390625 -14.820312 11.394531 -14.765625 11.40625 -14.703125 C 11.414062 -14.648438 11.421875 -14.597656 11.421875 -14.546875 C 11.453125 -14.335938 11.4375 -14.160156 11.375 -14.015625 C 11.34375 -13.878906 11.257812 -13.804688 11.125 -13.796875 C 11.0625 -13.773438 10.992188 -13.757812 10.921875 -13.75 C 10.859375 -13.75 10.785156 -13.753906 10.703125 -13.765625 C 10.546875 -13.785156 10.375 -13.796875 10.1875 -13.796875 C 10.007812 -13.796875 9.832031 -13.78125 9.65625 -13.75 C 9.300781 -13.707031 8.9375 -13.679688 8.5625 -13.671875 C 8.195312 -13.671875 7.828125 -13.671875 7.453125 -13.671875 C 7.328125 -13.671875 7.203125 -13.660156 7.078125 -13.640625 C 6.953125 -13.628906 6.828125 -13.609375 6.703125 -13.578125 C 6.503906 -13.554688 6.300781 -13.53125 6.09375 -13.5 C 5.894531 -13.476562 5.695312 -13.453125 5.5 -13.421875 C 5.414062 -13.410156 5.363281 -13.398438 5.34375 -13.390625 C 5.332031 -13.378906 5.328125 -13.332031 5.328125 -13.25 L 5.328125 -11.265625 C 5.347656 -11.191406 5.398438 -11.160156 5.484375 -11.171875 C 5.597656 -11.191406 5.707031 -11.203125 5.8125 -11.203125 C 5.914062 -11.203125 6.023438 -11.207031 6.140625 -11.21875 C 6.378906 -11.25 6.617188 -11.257812 6.859375 -11.25 C 7.109375 -11.25 7.359375 -11.238281 7.609375 -11.21875 C 7.785156 -11.207031 7.953125 -11.203125 8.109375 -11.203125 C 8.273438 -11.210938 8.441406 -11.226562 8.609375 -11.25 C 8.734375 -11.257812 8.859375 -11.265625 8.984375 -11.265625 C 9.117188 -11.265625 9.253906 -11.273438 9.390625 -11.296875 C 9.421875 -11.296875 9.445312 -11.289062 9.46875 -11.28125 C 9.5 -11.269531 9.519531 -11.265625 9.53125 -11.265625 C 9.71875 -11.222656 9.816406 -11.113281 9.828125 -10.9375 C 9.828125 -10.71875 9.832031 -10.507812 9.84375 -10.3125 C 9.851562 -10.125 9.859375 -9.921875 9.859375 -9.703125 C 9.867188 -9.523438 9.875 -9.34375 9.875 -9.15625 C 9.875 -8.96875 9.875 -8.773438 9.875 -8.578125 C 9.875 -8.453125 9.851562 -8.359375 9.8125 -8.296875 C 9.769531 -8.242188 9.675781 -8.207031 9.53125 -8.1875 C 9.40625 -8.175781 9.269531 -8.171875 9.125 -8.171875 C 8.976562 -8.171875 8.832031 -8.160156 8.6875 -8.140625 C 8.570312 -8.128906 8.457031 -8.117188 8.34375 -8.109375 C 8.226562 -8.097656 8.101562 -8.082031 7.96875 -8.0625 C 7.90625 -8.0625 7.828125 -8.0625 7.734375 -8.0625 C 7.648438 -8.0625 7.566406 -8.054688 7.484375 -8.046875 C 7.253906 -8.023438 7.019531 -8 6.78125 -7.96875 C 6.550781 -7.9375 6.320312 -7.90625 6.09375 -7.875 C 5.988281 -7.875 5.890625 -7.867188 5.796875 -7.859375 C 5.710938 -7.847656 5.625 -7.828125 5.53125 -7.796875 C 5.457031 -7.765625 5.410156 -7.738281 5.390625 -7.71875 C 5.378906 -7.707031 5.367188 -7.660156 5.359375 -7.578125 L 5.359375 -6.578125 C 5.359375 -6.410156 5.351562 -6.238281 5.34375 -6.0625 C 5.332031 -5.894531 5.328125 -5.722656 5.328125 -5.546875 Z M 5.3125 -5.546875 "/></g></g></g><g clip-path="url(#713a44607f)"><g clip-path="url(#57fa39cc32)"><g clip-path="url(#b49d96ec65)"><path fill="#f7f0e4" d="M 145.898438 20.027344 C 146.429688 21.921875 146.078125 23.691406 145.347656 25.496094 C 143.613281 29.828125 142.03125 34.230469 140.308594 38.570312 C 139.722656 40.003906 139.039062 41.390625 138.261719 42.710938 C 137.554688 43.933594 136.421875 44.332031 135.414062 43.933594 C 134.375 43.511719 133.777344 42.34375 134.257812 40.960938 C 135.054688 38.679688 136.0625 36.476562 136.953125 34.222656 C 138.3125 30.8125 139.574219 27.371094 141.015625 24.011719 C 141.84375 22.054688 143.234375 20.488281 145.261719 19.625 Z M 100.722656 25.011719 C 100.648438 26.816406 100.996094 28.535156 102.109375 29.960938 C 104.984375 33.636719 107.921875 37.273438 110.914062 40.878906 C 111.5 41.582031 112.238281 42.15625 113.0625 42.554688 C 113.609375 42.816406 114.589844 42.847656 114.976562 42.519531 C 115.417969 42.125 115.527344 41.230469 115.582031 40.546875 C 115.609375 40.148438 115.304688 39.675781 115.054688 39.296875 C 112.039062 34.820312 108.988281 30.375 105.011719 26.6875 C 103.949219 25.695312 102.355469 25.277344 101 24.59375 Z M 120.039062 17.960938 C 119.941406 22.726562 119.714844 27.476562 120.878906 32.175781 C 121.15625 33.292969 121.128906 34.496094 121.320312 35.644531 C 121.5 36.664062 121.660156 37.707031 122.042969 38.664062 C 122.378906 39.519531 123.140625 40.058594 124.160156 39.832031 C 125.121094 39.617188 125.542969 38.859375 125.574219 37.976562 C 125.644531 36.105469 125.785156 34.207031 125.589844 32.355469 C 125.183594 28.660156 124.589844 24.992188 124.046875 21.320312 C 123.835938 19.878906 123.609375 18.425781 123.339844 16.992188 C 123.125 15.878906 122.734375 14.832031 121.570312 14.214844 C 120.433594 15.25 120.066406 16.558594 120.039062 17.960938 Z M 120.039062 17.960938 " fill-opacity="1" fill-rule="nonzero"/></g></g></g><g clip-path="url(#b664891c3d)"><g transform="matrix(1, 0, 0, 1, 30, 94)"><g clip-path="url(#3009712ecc)"><g fill="#f7f0e4" fill-opacity="1"><g transform="translate(1.774029, 83.635199)"><g><path d="M 4.109375 -10.0625 C 4.109375 -10.125 4.109375 -10.195312 4.109375 -10.28125 C 4.109375 -10.375 4.109375 -10.445312 4.109375 -10.5 C 4.054688 -11.082031 4.113281 -11.617188 4.28125 -12.109375 C 4.457031 -12.609375 4.691406 -13.066406 4.984375 -13.484375 C 5.335938 -13.941406 5.71875 -14.375 6.125 -14.78125 C 6.53125 -15.195312 6.96875 -15.550781 7.4375 -15.84375 C 7.664062 -15.957031 7.867188 -16.046875 8.046875 -16.109375 C 8.335938 -16.109375 8.660156 -16.109375 9.015625 -16.109375 C 9.367188 -16.109375 9.71875 -16.078125 10.0625 -16.015625 C 10.414062 -16.015625 10.765625 -15.925781 11.109375 -15.75 C 11.460938 -15.570312 11.753906 -15.367188 11.984375 -15.140625 C 12.566406 -14.671875 13.164062 -14.21875 13.78125 -13.78125 C 14.394531 -13.34375 14.992188 -12.921875 15.578125 -12.515625 C 15.640625 -12.453125 15.785156 -12.363281 16.015625 -12.25 C 16.484375 -12.132812 16.960938 -12.019531 17.453125 -11.90625 C 17.953125 -11.789062 18.4375 -11.671875 18.90625 -11.546875 C 19.132812 -11.492188 19.363281 -11.46875 19.59375 -11.46875 C 19.832031 -11.46875 20.066406 -11.4375 20.296875 -11.375 C 21.410156 -11.144531 22.578125 -11.410156 23.796875 -12.171875 C 23.921875 -12.222656 24.066406 -12.394531 24.234375 -12.6875 C 24.816406 -13.382812 25.210938 -14.128906 25.421875 -14.921875 C 25.628906 -15.710938 25.734375 -16.570312 25.734375 -17.5 C 25.734375 -18.375 25.378906 -19.222656 24.671875 -20.046875 C 24.378906 -20.335938 24.070312 -20.628906 23.75 -20.921875 C 23.4375 -21.210938 23.046875 -21.441406 22.578125 -21.609375 C 21.585938 -22.023438 20.625 -22.492188 19.6875 -23.015625 C 18.757812 -23.535156 17.796875 -24.085938 16.796875 -24.671875 C 15.867188 -25.203125 14.96875 -25.742188 14.09375 -26.296875 C 13.21875 -26.847656 12.3125 -27.414062 11.375 -28 C 10.207031 -28.707031 9.1875 -29.410156 8.3125 -30.109375 C 7.726562 -30.628906 7.171875 -31.195312 6.640625 -31.8125 C 6.117188 -32.425781 5.65625 -33.113281 5.25 -33.875 C 4.726562 -34.863281 4.332031 -35.867188 4.0625 -36.890625 C 3.800781 -37.910156 3.613281 -38.972656 3.5 -40.078125 C 3.4375 -40.835938 3.40625 -41.582031 3.40625 -42.3125 C 3.40625 -43.039062 3.40625 -43.785156 3.40625 -44.546875 C 3.40625 -44.609375 3.40625 -44.648438 3.40625 -44.671875 C 3.40625 -44.703125 3.40625 -44.75 3.40625 -44.8125 C 3.644531 -45.6875 3.863281 -46.546875 4.0625 -47.390625 C 4.269531 -48.234375 4.578125 -49.035156 4.984375 -49.796875 C 5.273438 -50.316406 5.582031 -50.8125 5.90625 -51.28125 C 6.226562 -51.75 6.503906 -52.242188 6.734375 -52.765625 C 7.085938 -53.347656 7.523438 -53.875 8.046875 -54.34375 C 8.578125 -54.8125 9.078125 -55.304688 9.546875 -55.828125 C 10.128906 -56.472656 10.753906 -57.070312 11.421875 -57.625 C 12.085938 -58.175781 12.800781 -58.660156 13.5625 -59.078125 C 13.851562 -59.242188 14.128906 -59.382812 14.390625 -59.5 C 14.660156 -59.625 14.941406 -59.710938 15.234375 -59.765625 C 15.691406 -59.890625 16.171875 -60.023438 16.671875 -60.171875 C 17.171875 -60.316406 17.648438 -60.414062 18.109375 -60.46875 C 20.679688 -60.9375 23.222656 -60.9375 25.734375 -60.46875 C 26.367188 -60.351562 27.007812 -60.164062 27.65625 -59.90625 C 28.300781 -59.644531 28.914062 -59.367188 29.5 -59.078125 C 30.195312 -58.722656 30.863281 -58.3125 31.5 -57.84375 C 32.144531 -57.375 32.789062 -56.910156 33.4375 -56.453125 C 33.726562 -56.273438 34.003906 -56.066406 34.265625 -55.828125 C 34.523438 -55.597656 34.769531 -55.335938 35 -55.046875 C 35.0625 -54.984375 35.109375 -54.921875 35.140625 -54.859375 C 35.171875 -54.804688 35.210938 -54.753906 35.265625 -54.703125 C 35.328125 -54.578125 35.367188 -54.457031 35.390625 -54.34375 C 35.421875 -54.226562 35.46875 -54.113281 35.53125 -54 C 35.820312 -53.238281 35.984375 -52.710938 36.015625 -52.421875 C 36.046875 -52.128906 36 -51.578125 35.875 -50.765625 C 35.875 -50.523438 35.789062 -50.257812 35.625 -49.96875 C 35.5 -49.675781 35.363281 -49.382812 35.21875 -49.09375 C 35.070312 -48.800781 34.914062 -48.507812 34.75 -48.21875 C 34.457031 -47.695312 34.09375 -47.257812 33.65625 -46.90625 C 33.21875 -46.5625 32.765625 -46.242188 32.296875 -45.953125 C 32.234375 -45.953125 32.1875 -45.9375 32.15625 -45.90625 C 32.132812 -45.875 32.09375 -45.859375 32.03125 -45.859375 C 31.382812 -45.453125 30.710938 -45.257812 30.015625 -45.28125 C 29.316406 -45.3125 28.617188 -45.445312 27.921875 -45.6875 C 27.566406 -45.800781 27.210938 -45.929688 26.859375 -46.078125 C 26.515625 -46.222656 26.164062 -46.351562 25.8125 -46.46875 C 25.40625 -46.644531 24.96875 -46.804688 24.5 -46.953125 C 24.03125 -47.097656 23.566406 -47.171875 23.109375 -47.171875 C 22.523438 -47.171875 21.925781 -47.1875 21.3125 -47.21875 C 20.695312 -47.25 20.097656 -47.203125 19.515625 -47.078125 C 18.578125 -46.910156 17.816406 -46.414062 17.234375 -45.59375 C 16.535156 -44.488281 16.21875 -43.351562 16.28125 -42.1875 C 16.28125 -41.945312 16.304688 -41.769531 16.359375 -41.65625 C 16.648438 -41.070312 16.957031 -40.488281 17.28125 -39.90625 C 17.601562 -39.320312 18.085938 -38.851562 18.734375 -38.5 C 19.140625 -38.332031 19.546875 -38.144531 19.953125 -37.9375 C 20.359375 -37.726562 20.765625 -37.539062 21.171875 -37.375 C 22.171875 -36.957031 23.164062 -36.515625 24.15625 -36.046875 C 25.144531 -35.585938 26.109375 -35.125 27.046875 -34.65625 C 28.035156 -34.070312 29.007812 -33.441406 29.96875 -32.765625 C 30.9375 -32.097656 31.859375 -31.382812 32.734375 -30.625 C 33.253906 -30.28125 33.75 -29.875 34.21875 -29.40625 C 36.4375 -27.476562 37.71875 -25.054688 38.0625 -22.140625 C 38.1875 -21.203125 38.273438 -20.265625 38.328125 -19.328125 C 38.390625 -18.398438 38.445312 -17.441406 38.5 -16.453125 C 38.5625 -15.109375 38.429688 -13.796875 38.109375 -12.515625 C 37.785156 -11.234375 37.332031 -9.976562 36.75 -8.75 C 36.289062 -7.8125 35.679688 -6.820312 34.921875 -5.78125 C 34.453125 -5.070312 33.953125 -4.382812 33.421875 -3.71875 C 32.898438 -3.050781 32.289062 -2.453125 31.59375 -1.921875 C 30.832031 -1.335938 30.03125 -0.769531 29.1875 -0.21875 C 28.34375 0.332031 27.425781 0.8125 26.4375 1.21875 C 25.320312 1.632812 24.179688 1.988281 23.015625 2.28125 C 21.960938 2.507812 20.941406 2.609375 19.953125 2.578125 C 18.960938 2.546875 17.972656 2.359375 16.984375 2.015625 C 16.273438 1.773438 15.554688 1.539062 14.828125 1.3125 C 14.097656 1.082031 13.414062 0.789062 12.78125 0.4375 C 12.25 0.144531 11.722656 -0.0703125 11.203125 -0.21875 C 10.679688 -0.363281 10.15625 -0.550781 9.625 -0.78125 C 9.445312 -0.84375 9.1875 -0.988281 8.84375 -1.21875 C 8.78125 -1.28125 8.703125 -1.335938 8.609375 -1.390625 C 8.523438 -1.453125 8.425781 -1.515625 8.3125 -1.578125 C 7.726562 -1.867188 7.203125 -2.273438 6.734375 -2.796875 C 6.265625 -3.328125 5.882812 -3.882812 5.59375 -4.46875 C 5.59375 -4.519531 5.578125 -4.5625 5.546875 -4.59375 C 5.523438 -4.625 5.515625 -4.664062 5.515625 -4.71875 C 4.929688 -5.539062 4.535156 -6.398438 4.328125 -7.296875 C 4.128906 -8.203125 4.054688 -9.125 4.109375 -10.0625 Z M 4.109375 -10.0625 "/></g></g></g><g fill="#f7f0e4" fill-opacity="1"><g transform="translate(46.750605, 83.635199)"><g><path d="M 37.109375 -25.984375 C 37.046875 -24.992188 37.015625 -23.988281 37.015625 -22.96875 C 37.015625 -21.945312 36.957031 -20.910156 36.84375 -19.859375 C 36.78125 -19.109375 36.71875 -18.320312 36.65625 -17.5 C 36.601562 -16.6875 36.519531 -15.867188 36.40625 -15.046875 C 36.226562 -13.828125 35.90625 -12.546875 35.4375 -11.203125 C 35.03125 -10.097656 34.578125 -8.988281 34.078125 -7.875 C 33.585938 -6.769531 32.9375 -5.71875 32.125 -4.71875 C 31.769531 -4.3125 31.390625 -3.929688 30.984375 -3.578125 C 30.578125 -3.234375 30.164062 -2.914062 29.75 -2.625 C 29.457031 -2.394531 29.148438 -2.175781 28.828125 -1.96875 C 28.515625 -1.757812 28.179688 -1.539062 27.828125 -1.3125 C 27.597656 -1.195312 27.363281 -1.066406 27.125 -0.921875 C 26.894531 -0.773438 26.632812 -0.644531 26.34375 -0.53125 C 23.65625 0.226562 20.941406 0.492188 18.203125 0.265625 C 17.679688 0.203125 17.15625 0.0976562 16.625 -0.046875 C 16.101562 -0.191406 15.609375 -0.320312 15.140625 -0.4375 C 14.785156 -0.550781 14.429688 -0.679688 14.078125 -0.828125 C 13.734375 -0.972656 13.390625 -1.101562 13.046875 -1.21875 C 12.984375 -1.28125 12.90625 -1.335938 12.8125 -1.390625 C 12.726562 -1.453125 12.628906 -1.515625 12.515625 -1.578125 C 11.578125 -2.210938 10.742188 -2.925781 10.015625 -3.71875 C 9.285156 -4.507812 8.539062 -5.28125 7.78125 -6.03125 C 7.082031 -6.789062 6.484375 -7.59375 5.984375 -8.4375 C 5.492188 -9.289062 5.070312 -10.179688 4.71875 -11.109375 C 4.488281 -11.640625 4.253906 -12.148438 4.015625 -12.640625 C 3.785156 -13.140625 3.644531 -13.679688 3.59375 -14.265625 C 3.53125 -14.910156 3.441406 -15.550781 3.328125 -16.1875 C 3.210938 -16.832031 3.125 -17.445312 3.0625 -18.03125 C 2.945312 -19.375 2.816406 -20.726562 2.671875 -22.09375 C 2.523438 -23.46875 2.394531 -24.828125 2.28125 -26.171875 C 2.21875 -27.335938 2.203125 -28.503906 2.234375 -29.671875 C 2.265625 -30.835938 2.335938 -32.003906 2.453125 -33.171875 C 2.566406 -33.984375 2.695312 -34.796875 2.84375 -35.609375 C 2.988281 -36.429688 3.09375 -37.222656 3.15625 -37.984375 C 3.269531 -38.566406 3.351562 -39.132812 3.40625 -39.6875 C 3.46875 -40.238281 3.554688 -40.804688 3.671875 -41.390625 C 4.140625 -43.609375 4.796875 -45.753906 5.640625 -47.828125 C 6.484375 -49.898438 7.460938 -51.898438 8.578125 -53.828125 C 9.335938 -55.046875 10.359375 -56.125 11.640625 -57.0625 C 12.742188 -57.875 13.910156 -58.597656 15.140625 -59.234375 C 16.367188 -59.878906 17.648438 -60.410156 18.984375 -60.828125 C 19.453125 -60.941406 19.90625 -61.007812 20.34375 -61.03125 C 20.78125 -61.0625 21.203125 -61.078125 21.609375 -61.078125 C 21.898438 -61.023438 22.222656 -60.984375 22.578125 -60.953125 C 22.929688 -60.921875 23.28125 -60.878906 23.625 -60.828125 C 23.800781 -60.828125 23.976562 -60.8125 24.15625 -60.78125 C 24.332031 -60.75 24.503906 -60.703125 24.671875 -60.640625 C 25.203125 -60.410156 25.726562 -60.175781 26.25 -59.9375 C 26.78125 -59.707031 27.335938 -59.445312 27.921875 -59.15625 C 28.210938 -59.039062 28.414062 -58.867188 28.53125 -58.640625 C 29.582031 -57.472656 30.632812 -56.097656 31.6875 -54.515625 C 31.800781 -54.347656 31.898438 -54.175781 31.984375 -54 C 32.078125 -53.820312 32.148438 -53.617188 32.203125 -53.390625 C 32.492188 -52.804688 32.769531 -52.222656 33.03125 -51.640625 C 33.300781 -51.054688 33.582031 -50.472656 33.875 -49.890625 C 34.332031 -49.066406 34.679688 -48.25 34.921875 -47.4375 C 35.210938 -46.5 35.488281 -45.578125 35.75 -44.671875 C 36.007812 -43.765625 36.195312 -42.847656 36.3125 -41.921875 C 36.550781 -40.578125 36.742188 -39.21875 36.890625 -37.84375 C 37.035156 -36.476562 37.132812 -35.125 37.1875 -33.78125 C 37.3125 -32.5 37.359375 -31.210938 37.328125 -29.921875 C 37.296875 -28.640625 37.222656 -27.328125 37.109375 -25.984375 Z M 26.4375 -33.78125 C 26.375 -34.882812 26.269531 -35.960938 26.125 -37.015625 C 25.976562 -38.066406 25.816406 -39.144531 25.640625 -40.25 C 25.460938 -41.945312 24.820312 -43.582031 23.71875 -45.15625 C 23.476562 -45.507812 23.210938 -45.859375 22.921875 -46.203125 C 22.628906 -46.554688 22.253906 -46.847656 21.796875 -47.078125 C 21.441406 -47.253906 21.085938 -47.34375 20.734375 -47.34375 C 20.566406 -47.40625 20.378906 -47.421875 20.171875 -47.390625 C 19.960938 -47.359375 19.773438 -47.316406 19.609375 -47.265625 C 19.191406 -47.203125 18.796875 -47.066406 18.421875 -46.859375 C 18.046875 -46.660156 17.738281 -46.359375 17.5 -45.953125 C 17.269531 -45.367188 17.019531 -44.796875 16.75 -44.234375 C 16.488281 -43.679688 16.273438 -43.082031 16.109375 -42.4375 C 15.523438 -40.632812 15.097656 -38.796875 14.828125 -36.921875 C 14.566406 -35.054688 14.378906 -33.164062 14.265625 -31.25 C 14.203125 -29.957031 14.171875 -28.65625 14.171875 -27.34375 C 14.171875 -26.03125 14.171875 -24.703125 14.171875 -23.359375 C 14.117188 -22.429688 14.132812 -21.53125 14.21875 -20.65625 C 14.3125 -19.78125 14.472656 -18.90625 14.703125 -18.03125 C 14.878906 -17.332031 15.050781 -16.660156 15.21875 -16.015625 C 15.394531 -15.367188 15.628906 -14.726562 15.921875 -14.09375 C 16.566406 -12.976562 17.5625 -12.335938 18.90625 -12.171875 C 19.082031 -12.171875 19.253906 -12.171875 19.421875 -12.171875 C 19.597656 -12.171875 19.773438 -12.171875 19.953125 -12.171875 C 20.128906 -12.171875 20.316406 -12.171875 20.515625 -12.171875 C 20.722656 -12.171875 20.882812 -12.195312 21 -12.25 C 21.820312 -12.488281 22.640625 -12.835938 23.453125 -13.296875 C 23.804688 -13.421875 24.039062 -13.65625 24.15625 -14 C 24.445312 -14.757812 24.738281 -15.519531 25.03125 -16.28125 C 25.320312 -17.039062 25.492188 -17.796875 25.546875 -18.546875 C 25.609375 -18.835938 25.664062 -19.128906 25.71875 -19.421875 C 25.78125 -19.710938 25.84375 -19.976562 25.90625 -20.21875 C 26.195312 -21.207031 26.367188 -22.210938 26.421875 -23.234375 C 26.484375 -24.253906 26.515625 -25.289062 26.515625 -26.34375 C 26.578125 -27.570312 26.59375 -28.8125 26.5625 -30.0625 C 26.53125 -31.3125 26.488281 -32.550781 26.4375 -33.78125 Z M 26.4375 -33.78125 "/></g></g></g><g fill="#f7f0e4" fill-opacity="1"><g transform="translate(86.739516, 83.635199)"><g><path d="M 40.875 -39.640625 C 40.875 -37.660156 40.875 -35.691406 40.875 -33.734375 C 40.875 -31.785156 40.84375 -29.816406 40.78125 -27.828125 C 40.78125 -25.429688 40.691406 -23.007812 40.515625 -20.5625 C 40.398438 -18.757812 40.210938 -16.921875 39.953125 -15.046875 C 39.691406 -13.179688 39.269531 -11.347656 38.6875 -9.546875 C 38.332031 -8.367188 37.90625 -7.210938 37.40625 -6.078125 C 36.914062 -4.941406 36.234375 -3.878906 35.359375 -2.890625 C 35.179688 -2.710938 34.988281 -2.535156 34.78125 -2.359375 C 34.582031 -2.179688 34.394531 -2.007812 34.21875 -1.84375 C 34.101562 -1.71875 33.984375 -1.613281 33.859375 -1.53125 C 33.742188 -1.445312 33.628906 -1.34375 33.515625 -1.21875 C 32.929688 -0.632812 32.289062 -0.171875 31.59375 0.171875 C 30.894531 0.523438 30.132812 0.847656 29.3125 1.140625 C 28.96875 1.191406 28.601562 1.273438 28.21875 1.390625 C 27.84375 1.515625 27.453125 1.632812 27.046875 1.75 C 26.335938 1.925781 25.632812 2.039062 24.9375 2.09375 C 24.238281 2.15625 23.507812 2.21875 22.75 2.28125 C 22.050781 2.28125 21.351562 2.21875 20.65625 2.09375 C 19.957031 1.976562 19.285156 1.804688 18.640625 1.578125 C 18.117188 1.335938 17.566406 1.128906 16.984375 0.953125 C 16.398438 0.785156 15.84375 0.613281 15.3125 0.4375 C 14.5 0.144531 13.710938 -0.234375 12.953125 -0.703125 C 12.191406 -1.171875 11.492188 -1.664062 10.859375 -2.1875 C 10.328125 -2.65625 9.867188 -3.164062 9.484375 -3.71875 C 9.109375 -4.269531 8.773438 -4.835938 8.484375 -5.421875 C 8.304688 -5.828125 8.128906 -6.234375 7.953125 -6.640625 C 7.785156 -7.054688 7.582031 -7.46875 7.34375 -7.875 C 7 -8.519531 6.707031 -9.207031 6.46875 -9.9375 C 6.238281 -10.664062 6.007812 -11.378906 5.78125 -12.078125 C 5.539062 -12.953125 5.316406 -13.828125 5.109375 -14.703125 C 4.910156 -15.578125 4.753906 -16.484375 4.640625 -17.421875 C 4.578125 -17.878906 4.515625 -18.367188 4.453125 -18.890625 C 4.398438 -19.421875 4.34375 -19.921875 4.28125 -20.390625 C 4.226562 -20.910156 4.1875 -21.429688 4.15625 -21.953125 C 4.125 -22.484375 4.082031 -23.015625 4.03125 -23.546875 C 3.851562 -25.003906 3.71875 -26.472656 3.625 -27.953125 C 3.539062 -29.441406 3.53125 -30.914062 3.59375 -32.375 C 3.707031 -34.945312 3.789062 -37.5 3.84375 -40.03125 C 3.90625 -42.570312 3.96875 -45.128906 4.03125 -47.703125 C 4.03125 -48.285156 4.039062 -48.851562 4.0625 -49.40625 C 4.09375 -49.957031 4.109375 -50.523438 4.109375 -51.109375 C 4.109375 -51.398438 4.164062 -51.722656 4.28125 -52.078125 C 4.457031 -52.890625 4.632812 -53.6875 4.8125 -54.46875 C 4.988281 -55.257812 5.191406 -56.035156 5.421875 -56.796875 C 5.660156 -58.253906 6.507812 -59.363281 7.96875 -60.125 C 8.78125 -60.59375 9.710938 -60.753906 10.765625 -60.609375 C 11.816406 -60.460938 12.632812 -60.066406 13.21875 -59.421875 C 13.507812 -59.191406 13.726562 -58.914062 13.875 -58.59375 C 14.019531 -58.269531 14.148438 -57.960938 14.265625 -57.671875 C 14.554688 -56.972656 14.742188 -56.242188 14.828125 -55.484375 C 14.921875 -54.722656 14.96875 -53.9375 14.96875 -53.125 C 15.082031 -51.550781 15.082031 -49.972656 14.96875 -48.390625 C 14.851562 -46.816406 14.765625 -45.242188 14.703125 -43.671875 C 14.703125 -43.429688 14.703125 -43.195312 14.703125 -42.96875 C 14.703125 -42.738281 14.703125 -42.476562 14.703125 -42.1875 C 14.703125 -41.71875 14.6875 -41.234375 14.65625 -40.734375 C 14.625 -40.242188 14.582031 -39.765625 14.53125 -39.296875 C 14.53125 -38.941406 14.515625 -38.585938 14.484375 -38.234375 C 14.453125 -37.890625 14.4375 -37.539062 14.4375 -37.1875 C 14.4375 -35.613281 14.421875 -34.039062 14.390625 -32.46875 C 14.367188 -30.894531 14.382812 -29.320312 14.4375 -27.75 C 14.4375 -25.175781 14.523438 -22.609375 14.703125 -20.046875 C 14.816406 -18.117188 15.195312 -16.304688 15.84375 -14.609375 C 16.1875 -13.734375 16.632812 -12.914062 17.1875 -12.15625 C 17.75 -11.40625 18.410156 -10.707031 19.171875 -10.0625 C 19.285156 -10.007812 19.414062 -9.953125 19.5625 -9.890625 C 19.707031 -9.828125 19.835938 -9.769531 19.953125 -9.71875 C 21.234375 -9.363281 22.457031 -9.390625 23.625 -9.796875 C 24.382812 -10.085938 24.96875 -10.554688 25.375 -11.203125 C 26.195312 -12.304688 26.84375 -13.675781 27.3125 -15.3125 C 27.832031 -16.882812 28.222656 -18.472656 28.484375 -20.078125 C 28.742188 -21.679688 28.90625 -23.300781 28.96875 -24.9375 C 29.082031 -27.5625 29.179688 -30.171875 29.265625 -32.765625 C 29.359375 -35.367188 29.460938 -37.984375 29.578125 -40.609375 C 29.691406 -42.117188 29.820312 -43.632812 29.96875 -45.15625 C 30.113281 -46.675781 30.25 -48.191406 30.375 -49.703125 C 30.425781 -50.460938 30.476562 -51.207031 30.53125 -51.9375 C 30.59375 -52.664062 30.65625 -53.410156 30.71875 -54.171875 C 30.894531 -56.148438 31.625 -58.015625 32.90625 -59.765625 C 33.132812 -60.003906 33.3125 -60.125 33.4375 -60.125 C 33.894531 -60.238281 34.34375 -60.367188 34.78125 -60.515625 C 35.21875 -60.660156 35.671875 -60.765625 36.140625 -60.828125 C 36.492188 -60.878906 36.859375 -60.859375 37.234375 -60.765625 C 37.617188 -60.679688 38.015625 -60.582031 38.421875 -60.46875 C 38.765625 -60.414062 39.066406 -60.269531 39.328125 -60.03125 C 39.597656 -59.800781 39.847656 -59.539062 40.078125 -59.25 C 40.367188 -58.664062 40.613281 -58.09375 40.8125 -57.53125 C 41.019531 -56.976562 41.097656 -56.382812 41.046875 -55.75 C 40.984375 -55.050781 40.953125 -54.363281 40.953125 -53.6875 C 40.953125 -53.019531 40.953125 -52.335938 40.953125 -51.640625 C 40.953125 -49.648438 40.953125 -47.660156 40.953125 -45.671875 C 40.953125 -43.691406 40.953125 -41.679688 40.953125 -39.640625 C 40.953125 -39.640625 40.925781 -39.640625 40.875 -39.640625 Z M 40.875 -39.640625 "/></g></g></g><g fill="#f7f0e4" fill-opacity="1"><g transform="translate(133.116257, 83.635199)"><g><path d="M 15.046875 -46.734375 C 15.171875 -45.273438 15.257812 -43.875 15.3125 -42.53125 C 15.375 -41.1875 15.429688 -39.84375 15.484375 -38.5 C 15.484375 -38.445312 15.5 -38.390625 15.53125 -38.328125 C 15.5625 -38.273438 15.578125 -38.1875 15.578125 -38.0625 C 15.691406 -35.320312 15.804688 -32.566406 15.921875 -29.796875 C 16.046875 -27.023438 16.109375 -24.238281 16.109375 -21.4375 C 16.046875 -20.332031 16.03125 -19.195312 16.0625 -18.03125 C 16.09375 -16.863281 16.109375 -15.695312 16.109375 -14.53125 C 16.109375 -14.414062 16.109375 -14.285156 16.109375 -14.140625 C 16.109375 -13.992188 16.109375 -13.859375 16.109375 -13.734375 C 16.222656 -13.148438 16.484375 -12.671875 16.890625 -12.296875 C 17.296875 -11.921875 17.789062 -11.757812 18.375 -11.8125 C 19.3125 -11.875 20.21875 -11.859375 21.09375 -11.765625 C 21.96875 -11.679688 22.867188 -11.609375 23.796875 -11.546875 C 24.378906 -11.492188 24.945312 -11.453125 25.5 -11.421875 C 26.0625 -11.390625 26.632812 -11.375 27.21875 -11.375 C 27.445312 -11.375 27.675781 -11.375 27.90625 -11.375 C 28.144531 -11.375 28.382812 -11.347656 28.625 -11.296875 C 30.019531 -11.171875 30.921875 -10.46875 31.328125 -9.1875 C 31.910156 -7.4375 32.03125 -5.570312 31.6875 -3.59375 C 31.332031 -2.25 30.515625 -1.164062 29.234375 -0.34375 C 28.878906 -0.175781 28.441406 -0.09375 27.921875 -0.09375 C 27.222656 -0.09375 26.519531 -0.09375 25.8125 -0.09375 C 25.113281 -0.09375 24.414062 -0.0625 23.71875 0 C 22.375 0.0625 21.03125 0.101562 19.6875 0.125 C 18.34375 0.15625 17.003906 0.203125 15.671875 0.265625 C 14.554688 0.316406 13.414062 0.359375 12.25 0.390625 C 11.082031 0.421875 9.914062 0.46875 8.75 0.53125 C 8.519531 0.53125 8.285156 0.53125 8.046875 0.53125 C 7.816406 0.53125 7.582031 0.5 7.34375 0.4375 C 6.757812 0.320312 6.351562 0.144531 6.125 -0.09375 C 4.78125 -1.3125 4.109375 -2.796875 4.109375 -4.546875 C 4.054688 -6.765625 4 -8.953125 3.9375 -11.109375 C 3.875 -13.273438 3.816406 -15.4375 3.765625 -17.59375 C 3.703125 -19.8125 3.671875 -22.023438 3.671875 -24.234375 C 3.671875 -26.453125 3.644531 -28.671875 3.59375 -30.890625 C 3.53125 -34.160156 3.5 -37.457031 3.5 -40.78125 C 3.5 -44.101562 3.5 -47.429688 3.5 -50.765625 C 3.5 -50.992188 3.5 -51.222656 3.5 -51.453125 C 3.5 -51.691406 3.53125 -51.925781 3.59375 -52.15625 C 3.757812 -52.976562 3.898438 -53.8125 4.015625 -54.65625 C 4.140625 -55.5 4.347656 -56.300781 4.640625 -57.0625 C 4.929688 -57.988281 5.367188 -58.742188 5.953125 -59.328125 C 6.472656 -59.796875 7.039062 -60.128906 7.65625 -60.328125 C 8.269531 -60.535156 8.867188 -60.703125 9.453125 -60.828125 C 9.566406 -60.828125 9.695312 -60.828125 9.84375 -60.828125 C 9.988281 -60.828125 10.117188 -60.828125 10.234375 -60.828125 C 10.703125 -60.941406 11.140625 -60.925781 11.546875 -60.78125 C 11.960938 -60.632812 12.375 -60.414062 12.78125 -60.125 C 13.070312 -59.882812 13.273438 -59.59375 13.390625 -59.25 C 13.503906 -58.84375 13.632812 -58.445312 13.78125 -58.0625 C 13.925781 -57.6875 14.03125 -57.265625 14.09375 -56.796875 C 14.269531 -56.148438 14.414062 -55.476562 14.53125 -54.78125 C 14.644531 -54.082031 14.757812 -53.382812 14.875 -52.6875 C 14.9375 -52.507812 14.96875 -52.316406 14.96875 -52.109375 C 14.96875 -51.910156 14.96875 -51.691406 14.96875 -51.453125 C 15.019531 -50.640625 15.046875 -49.8125 15.046875 -48.96875 C 15.046875 -48.125 15.046875 -47.378906 15.046875 -46.734375 Z M 15.046875 -46.734375 "/></g></g></g></g></g></g></g></g></svg>